<?xml version="1.0" encoding="UTF-8" standalone="no"?>
<!-- Created with Inkscape (http://www.inkscape.org/) -->

<svg
   xmlns:dc="http://purl.org/dc/elements/1.1/"
   xmlns:cc="http://creativecommons.org/ns#"
   xmlns:rdf="http://www.w3.org/1999/02/22-rdf-syntax-ns#"
   xmlns:svg="http://www.w3.org/2000/svg"
   xmlns="http://www.w3.org/2000/svg"
   xmlns:sodipodi="http://sodipodi.sourceforge.net/DTD/sodipodi-0.dtd"
   xmlns:inkscape="http://www.inkscape.org/namespaces/inkscape"
   width="744.09448819"
   height="1052.3622047"
   id="svg2"
   version="1.1"
   inkscape:version="0.48.4 r9939"
   sodipodi:docname="webplayer.svg">
  <defs
     id="defs4" />
  <sodipodi:namedview
     id="base"
     pagecolor="#ffffff"
     bordercolor="#666666"
     borderopacity="1.0"
     inkscape:pageopacity="0.0"
     inkscape:pageshadow="2"
     inkscape:zoom="3.959798"
     inkscape:cx="179.79705"
     inkscape:cy="487.1886"
     inkscape:document-units="px"
     inkscape:current-layer="layer1"
     showgrid="false"
     inkscape:window-width="1280"
     inkscape:window-height="961"
     inkscape:window-x="0"
     inkscape:window-y="41"
     inkscape:window-maximized="1" />
  <metadata
     id="metadata7">
    <rdf:RDF>
      <cc:Work
         rdf:about="">
        <dc:format>image/svg+xml</dc:format>
        <dc:type
           rdf:resource="http://purl.org/dc/dcmitype/StillImage" />
        <dc:title></dc:title>
      </cc:Work>
    </rdf:RDF>
  </metadata>
  <g
     inkscape:label="Layer 1"
     inkscape:groupmode="layer"
     id="layer1">
    <path
       style="fill:#8d8d8d;fill-opacity:1;stroke:#979494;stroke-width:3;stroke-linejoin:miter;stroke-miterlimit:4;stroke-opacity:1;stroke-dasharray:none;stroke-dashoffset:0"
       id="path3807"
       d="m 170.76458,530.90001 c 0.96221,-1.11466 2.14559,-1.99453 3.35917,-2.81357 1.50398,-1.0106 3.06505,-1.94209 4.6896,-2.74582 1.71783,-0.77843 3.48496,-1.4673 5.25909,-2.1099 1.99714,-0.78846 4.07933,-1.27445 6.1717,-1.72309 2.10614,-0.46595 4.25637,-0.63102 6.40594,-0.7239 1.60504,-0.0601 3.21133,-0.0607 4.81723,-0.0599 1.31789,-0.0401 2.606,0.28768 3.85489,0.67513 1.63078,0.52223 3.17822,1.25323 4.76673,1.88317 1.98831,0.74235 4.00904,1.38463 6.00336,2.11037 1.48203,0.47282 2.79745,1.27334 3.98703,2.26111 0.83417,0.82235 1.18758,1.9494 1.56791,3.02635 0.34552,1.06766 0.44168,2.18969 0.64256,3.28913 0.24392,1.2803 0.31086,2.58359 0.35553,3.8832 0.0124,1.34894 0.0875,2.70207 -0.0278,4.04752 -0.1398,1.50454 -0.37972,2.99294 -0.61984,4.48368 -0.22574,1.39262 -0.67154,2.72169 -1.17546,4.03328 -0.46461,1.27293 -1.05797,2.48739 -1.64085,3.70874 -0.64418,1.21548 -1.44721,2.34443 -2.25994,3.45263 -0.71137,0.89207 -1.51002,1.68405 -2.36894,2.43092 -0.88993,0.61691 -1.6849,1.35442 -2.57162,1.97486 l -0.9214,0.36218 0,0 c 0.89579,-0.60868 1.67837,-1.36044 2.5776,-1.96537 0.85899,-0.74506 1.66423,-1.5254 2.38066,-2.41221 0.81536,-1.10264 1.61512,-2.23011 2.26912,-3.43642 0.58396,-1.21809 1.17611,-2.43026 1.6411,-3.70035 0.50479,-1.30701 0.96394,-2.62741 1.1888,-4.01705 0.24149,-1.48821 0.48171,-2.97382 0.62053,-4.47621 0.12437,-1.34108 0.041,-2.69133 0.0329,-4.03659 -0.043,-1.29483 -0.10876,-2.59341 -0.3512,-3.86904 -0.20176,-1.09432 -0.30098,-2.20995 -0.63617,-3.27495 -0.37276,-1.06105 -0.71819,-2.17151 -1.54042,-2.98078 -1.18052,-0.98086 -2.48481,-1.77296 -3.95651,-2.24092 -1.99292,-0.73238 -4.01587,-1.37079 -6.00558,-2.11212 -1.5872,-0.63212 -3.13767,-1.35495 -4.76986,-1.87155 -1.24593,-0.378 -2.52679,-0.69373 -3.83897,-0.65069 -1.60127,-0.003 -3.20299,-0.003 -4.80346,0.0553 -2.14587,0.0957 -4.29181,0.26605 -6.3936,0.7349 -2.09172,0.44899 -4.16973,0.94953 -6.16628,1.73578 -1.77412,0.64954 -3.54554,1.33291 -5.26027,2.12477 -0.76137,0.38044 -1.8479,0.94526 -3.01097,1.77617 -1.21421,0.8112 -2.40173,1.68128 -3.3657,2.78933 -0.84995,0.95486 -1.65695,1.94507 -2.34842,3.02291 -7.40558,14.2815 -4.42862,4.01858 1.44181,-2.641 z"
       inkscape:connector-curvature="0"
       sodipodi:nodetypes="ccccccccccccccccccccccccccccccccccccccccccccc"
       inkscape:export-filename="webplayer.ico.png"
       inkscape:export-xdpi="23.850534"
       inkscape:export-ydpi="23.850534" />
    <path
       style="fill:#000000;fill-opacity:1;stroke:#979494;stroke-width:3;stroke-linejoin:miter;stroke-miterlimit:4;stroke-opacity:1;stroke-dasharray:none;stroke-dashoffset:0"
       id="path3811"
       d="m 228.67468,543.17471 c 1.55605,-0.49476 3.35645,-0.57929 4.97777,-0.68071 1.20222,-0.0999 2.39156,0.1211 3.48591,0.61745 0.95675,0.44403 1.83891,1.02096 2.71654,1.60128 1.11651,0.80716 2.26559,1.56734 3.35232,2.41514 1.06119,0.82763 2.01919,1.76013 2.81144,2.84806 0.51029,0.92498 1.09003,1.80129 1.60093,2.72584 0.49496,0.88196 0.66363,1.86481 0.76031,2.85692 0.0607,1.29619 0.10801,2.5986 8.9e-4,3.89276 -0.11621,1.50915 -0.6018,2.94901 -1.26236,4.30014 -0.58403,1.14896 -1.32388,2.18702 -2.11046,3.2021 -0.72722,0.97864 -1.65781,1.76393 -2.61632,2.50504 -1.74653,1.31362 -3.74245,2.16589 -5.80144,2.84312 -2.28044,0.81267 -4.65377,1.30041 -6.99419,1.90015 -2.42343,0.7053 -4.88308,1.26239 -7.33492,1.85338 -1.48104,0.42108 -3.01351,0.56518 -4.50755,0.91967 -1.34169,0.30873 -2.72107,0.34024 -4.09079,0.37576 -2.25645,0.0315 -4.51326,0.0234 -6.76987,0.0227 -2.19346,-0.0181 -4.37739,0.23708 -6.56538,0.3659 -1.75316,0.023 -3.48894,0.17458 -5.2292,0.37095 -1.59257,0.18715 -3.19665,0.23079 -4.79839,0.25862 -1.91402,0.0432 -3.82986,-0.04 -5.74112,0.078 -2.13066,0.18953 -4.26516,0.31393 -6.40286,0.38347 -2.13552,0.0514 -4.27182,0.0557 -6.40784,0.0593 -1.82007,0.002 -3.64013,-3.5e-4 -5.4602,-0.002 -2.10677,0.0716 -4.20073,-0.0649 -6.29855,-0.23442 -1.96895,-0.28633 -3.94019,-0.5377 -5.92569,-0.67135 -1.44151,-0.17426 -2.88111,-0.34708 -4.29643,-0.67349 -1.23717,-0.23552 -2.40222,-0.71205 -3.57106,-1.16453 -1.56491,-0.59327 -3.0141,-1.43856 -4.48686,-2.22288 -1.33789,-0.67908 -2.51133,-1.6053 -3.6296,-2.59395 -1.03385,-0.75592 -1.94293,-1.64421 -2.75453,-2.6315 -0.88636,-1.34034 -1.67074,-2.76209 -2.35683,-4.21564 -0.84226,-1.80423 -1.39399,-3.71512 -1.74413,-5.66998 -0.29228,-1.88528 -0.32628,-3.7945 -0.34709,-5.69791 0.0518,-1.90221 0.53245,-3.75079 1.208,-5.51893 0.63188,-1.6427 1.61339,-3.08944 2.72094,-4.44216 1.11929,-1.42358 2.69134,-2.28362 4.23501,-3.16477 0.92945,-0.61513 2.54099,-1.42052 4.0679,-2.09888 1.32321,-0.52806 2.6461,-1.02893 4.04579,-1.30834 1.03736,-0.30844 2.09362,-0.51263 3.16932,-0.61969 1.08381,-0.0677 2.17513,-0.13257 3.25655,-0.0169 1.26021,0.11157 2.46547,0.45113 3.65947,0.8494 1.17156,0.29267 2.30592,0.69116 3.37883,1.24503 0.84257,0.3371 1.49931,0.9764 2.27367,1.42482 0.71124,0.42711 1.33433,0.96069 1.97079,1.48878 0.66359,0.76492 1.43134,1.44075 2.04294,2.24832 0.59043,0.6965 1.18943,1.38322 1.75803,2.098 0.60188,0.68066 1.23315,1.29733 2.04007,1.72525 0.71701,0.37674 1.19311,1.05197 1.85014,1.50604 0.61086,0.47288 1.22542,0.94031 1.82571,1.4283 0.6297,0.41981 1.19216,0.92616 1.78216,1.39717 l -0.84169,0.5285 0,0 c -0.58742,-0.47408 -1.15311,-0.97617 -1.78089,-1.39832 -0.60184,-0.48287 -1.21455,-0.95021 -1.82499,-1.42084 -0.64654,-0.46084 -1.12794,-1.1237 -1.84084,-1.4981 -0.81124,-0.44371 -1.45485,-1.06635 -2.06149,-1.75907 -0.57068,-0.71396 -1.16909,-1.40233 -1.75822,-2.10074 -0.60725,-0.80126 -1.3685,-1.4737 -2.03217,-2.22802 -0.63433,-0.52296 -1.25558,-1.05166 -1.96407,-1.47422 -0.76651,-0.45655 -1.42798,-1.08342 -2.26623,-1.42287 -1.07192,-0.54561 -2.20089,-0.94152 -3.36783,-1.23434 -1.1893,-0.39657 -2.39283,-0.72258 -3.64769,-0.83091 -1.07951,-0.10074 -2.16712,-0.0397 -3.24739,0.0349 -1.0725,0.11344 -2.12312,0.32934 -3.16069,0.62537 -1.39197,0.28825 -2.71108,0.7902 -4.02727,1.321 -1.73859,0.7711 -2.44947,1.09892 -4.06339,2.10694 0.0656,-0.042 0.26302,-0.16675 0.19672,-0.12593 -0.80493,0.49562 -1.60371,1.03798 -2.26301,1.72185 -0.17577,0.18231 -0.33591,0.37908 -0.50386,0.56862 -1.11224,1.34331 -2.10417,2.77875 -2.73949,4.41612 -0.6823,1.75489 -1.16261,3.59474 -1.22431,5.48587 0.0207,1.89864 0.0518,3.80347 0.33756,5.68474 0.34546,1.94712 0.89379,3.85005 1.73535,5.64541 0.68349,1.44583 1.46851,2.85765 2.35242,4.18995 0.81313,0.97895 1.71909,1.8622 2.74514,2.61917 1.11352,0.98244 2.28265,1.90097 3.61295,2.57754 1.4683,0.78754 2.92035,1.62238 4.4847,2.21005 1.1663,0.45188 2.33351,0.91213 3.56682,1.15037 1.40848,0.32383 2.8425,0.49662 4.27678,0.66836 1.98429,0.13768 3.95333,0.39802 5.92249,0.67513 2.09753,0.16962 4.19179,0.29756 6.29804,0.22518 1.81951,4.3e-4 3.63902,0.002 5.45852,0.003 2.13467,-0.002 4.26968,-0.003 6.40375,-0.0601 2.13757,-0.0709 4.27174,-0.19803 6.40238,-0.38627 1.91434,-0.1081 3.83242,-0.0352 5.74902,-0.0788 1.60044,-0.0308 3.20283,-0.078 4.79395,-0.26679 1.73859,-0.19677 3.47414,-0.33294 5.22504,-0.36139 2.18714,-0.13009 4.37079,-0.38165 6.56375,-0.35758 2.25987,10e-4 4.52004,0.008 6.77963,-0.0331 1.36931,-0.0402 2.74759,-0.0815 4.08721,-0.39792 1.48945,-0.3444 3.01653,-0.48857 4.49118,-0.90777 2.45118,-0.58232 4.9052,-1.14968 7.32717,-1.84937 2.34266,-0.59928 4.71621,-1.095 6.99759,-1.9112 1.57598,-0.52586 2.87118,-0.92883 4.1229,-1.88454 0.95917,-0.73189 1.89224,-1.51 2.62172,-2.48008 0.78891,-1.01134 1.53708,-2.04008 2.12408,-3.18625 0.66515,-1.33908 1.16266,-2.76549 1.27801,-4.2671 0.11454,-1.28707 0.0586,-2.58339 -3.2e-4,-3.87299 -0.092,-0.9793 -0.25227,-1.95048 -0.74099,-2.8212 -0.50983,-0.92021 -1.08312,-1.79606 -1.59064,-2.7177 -0.78589,-1.08144 -1.7396,-2.00545 -2.79481,-2.82588 -1.08623,-0.84446 -2.23141,-1.607 -3.34973,-2.40748 -0.87676,-0.57393 -1.7585,-1.14424 -2.71185,-1.58533 -1.08822,-0.47999 -2.44069,-0.77517 -3.63013,-0.67254 -7.80422,2.62593 -16.37338,4.11381 -4.00865,0.18784 z"
       inkscape:connector-curvature="0"
       sodipodi:nodetypes="ccccccccccccccccccccccccccccccccccccccccccccccccccccccccccccccccccccccccccccccccccccccccccccccccccccccccccc"
       inkscape:export-filename="webplayer.ico.png"
       inkscape:export-xdpi="23.850534"
       inkscape:export-ydpi="23.850534" />
    <path
       sodipodi:type="arc"
       style="fill:#000000;fill-opacity:1;fill-rule:evenodd;stroke:#000000;stroke-width:1px;stroke-linecap:butt;stroke-linejoin:miter;stroke-opacity:1"
       id="path3815"
       sodipodi:cx="175.625"
       sodipodi:cy="559.68359"
       sodipodi:rx="4.375"
       sodipodi:ry="4.2857141"
       d="m 180,559.68359 a 4.375,4.2857141 0 1 1 -8.75,0 4.375,4.2857141 0 1 1 8.75,0 z"
       transform="matrix(1.4761905,0,0,1.4761905,-85.952381,-276.0228)"
       inkscape:export-filename="webplayer.ico.png"
       inkscape:export-xdpi="23.850534"
       inkscape:export-ydpi="23.850534" />
    <path
       sodipodi:type="arc"
       style="fill:#000000;fill-opacity:1;fill-rule:evenodd;stroke:#000000;stroke-width:1px;stroke-linecap:butt;stroke-linejoin:miter;stroke-opacity:1"
       id="path3815-4"
       sodipodi:cx="175.625"
       sodipodi:cy="559.68359"
       sodipodi:rx="4.375"
       sodipodi:ry="4.2857141"
       d="m 180,559.68359 a 4.375,4.2857141 0 1 1 -8.75,0 4.375,4.2857141 0 1 1 8.75,0 z"
       transform="matrix(1.4761905,0,0,1.4761905,-44.79167,-276.33742)"
       inkscape:export-filename="webplayer.ico.png"
       inkscape:export-xdpi="23.850534"
       inkscape:export-ydpi="23.850534" />
    <path
       style="fill:none;stroke:#000000;stroke-width:2.79999995;stroke-linecap:butt;stroke-linejoin:miter;stroke-miterlimit:4;stroke-opacity:1;stroke-dasharray:none"
       d="m 167.58929,549.23718 -4.73214,41.875 42.85714,-10.89286 3.05366,-31.0886"
       id="path3847"
       inkscape:connector-curvature="0"
       sodipodi:nodetypes="cccc"
       inkscape:export-filename="webplayer.ico.png"
       inkscape:export-xdpi="23.850534"
       inkscape:export-ydpi="23.850534" />
  </g>
</svg>
